#!OML:ASF Y:\EmotionMaleHayes\Project 1\Capture day 1\Session 1\Male1.ASF
:FULLY-SPECIFIED
:DEGREES
69
root 24.0692 16.9521 -4.69945 -50.788 71.3869 -52.7311
lowerback 9.17811 8.54801 14.3855
upperback 0.469246 12.9863 1.74085
thorax -1.86915 6.38042 -7.05744
lowerneck -26.0828 -5.0349 -1.10669
upperneck 29.485 -7.5426 2.90833
head 14.7439 -2.74369 -0.0912293
rclavicle -6.76365e-014 -1.47101e-014
rhumerus -31.052 27.3206 -91.6246
rradius 107.578
rwrist -18.5007
rhand -28.3795 -25.6864
rfingers 7.12502
rthumb -1.75244 -55.659
lclavicle -6.76365e-014 -1.47101e-014
lhumerus -96.4111 -22.9876 89.2011
lradius 85.4142
lwrist 12.8689
lhand -45.4671 -36.2066
lfingers 7.12502
lthumb -18.233 -7.04118
rfemur 28.0753 9.07506 32.9484
rtibia 57.6041
rfoot -2.83792 -10.9041
rtoes 24.3527
lfemur -30.4485 13.3145 0.370332
ltibia 7.56093
lfoot -13.8489 8.0586
ltoes -11.3903
70
root 24.7083 16.8545 -4.72512 -51.6204 70.3985 -52.7503
lowerback 9.78251 8.35335 14.9443
upperback 0.542756 12.9125 2.06853
thorax -2.1021 6.32601 -7.10723
lowerneck -26.0856 -4.69277 -0.726975
upperneck 29.4507 -7.0666 2.4976
head 14.6781 -2.56536 -0.22574
rclavicle -2.3556e-014 -2.66371e-014
rhumerus -33.32 27.4895 -93.0204
rradius 107.234
rwrist -18.3376
rhand -27.4939 -26.6359
rfingers 7.12502
rthumb -0.89713 -56.6137
lclavicle -2.3556e-014 -2.66371e-014
lhumerus -95.1997 -22.7884 88.8494
lradius 85.1947
lwrist 13.4247
lhand -45.5982 -35.8704
lfingers 7.12502
lthumb -18.3592 -6.71676
rfemur 27.7324 9.38451 33.9711
rtibia 62.7904
rfoot -3.68579 -11.5452
rtoes 25.566
lfemur -29.3862 13.2478 1.99576
ltibia 8.31712
lfoot -13.9822 9.44129
ltoes -10.6812
71
root 25.3409 16.7411 -4.76209 -52.5273 69.8813 -52.9787
lowerback 10.3137 8.07011 15.4102
upperback 0.580874 12.6984 2.2334
thorax -2.34553 6.19833 -7.26443
lowerneck -25.8848 -4.50817 -0.741432
upperneck 29.251 -6.82198 2.6035
head 14.5485 -2.45853 -0.125733
rclavicle 3.49364e-014 -1.59028e-014
rhumerus -35.5535 27.4792 -94.3881
rradius 106.587
rwrist -18.3012
rhand -27.3876 -26.8002
rfingers 7.12502
rthumb -0.794483 -56.7784
lclavicle 3.49364e-014 -1.59028e-014
lhumerus -93.7623 -22.883 88.6627
lradius 84.9081
lwrist 13.7776
lhand -45.2984 -36.0148
lfingers 7.12502
lthumb -18.0708 -6.83431
rfemur 27.1122 9.31625 34.3614
rtibia 67.9408
rfoot -4.3898 -12.0784
rtoes 24.3174
lfemur -28.7155 12.5834 3.04649
ltibia 9.75252
lfoot -14.3233 9.98498
ltoes -8.21262
72
root 25.9616 16.6131 -4.80188 -54.1631 69.5612 -53.9892
lowerback 10.8295 7.59679 15.9464
upperback 0.680808 12.2411 2.40388
thorax -2.55962 5.95519 -7.43404
lowerneck -25.8569 -4.26382 -0.83696
upperneck 29.0329 -6.50899 2.85024
head 14.4565 -2.30935 0.0536909
rclavicle 7.8023e-015 -4.92986e-014
rhumerus -37.6194 27.5083 -95.6134
rradius 105.774
rwrist -18.1149
rhand -27.619 -27.5451
rfingers 7.12502
rthumb -1.01794 -57.5224
lclavicle 7.8023e-015 -4.92986e-014
lhumerus -91.9993 -22.9982 88.4892
lradius 85.064
lwrist 14.3655
lhand -44.5637 -34.5569
lfingers 7.12502
lthumb -17.3638 -5.31253
rfemur 26.3187 8.84087 34.5545
rtibia 72.9781
rfoot -4.80838 -12.7242
rtoes 21.8292
lfemur -28.2849 12.2198 3.69997
ltibia 11.5896
lfoot -13.8984 9.30229
ltoes -9.75868
73
root 26.5774 16.4776 -4.8365 -56.0776 69.331 -55.0632
lowerback 11.6027 6.97477 16.3512
upperback 0.803664 11.6305 2.59342
thorax -2.96307 5.62238 -7.55022
lowerneck -25.6942 -3.89763 -0.736383
upperneck 28.8143 -6.01663 2.85667
head 14.312 -2.09916 0.140092
rclavicle -1.44119e-014 4.77083e-015
rhumerus -39.7659 27.5598 -96.9344
rradius 104.625
rwrist -18.2314
rhand -27.6231 -27.8006
rfingers 7.12502
rthumb -1.02187 -57.7779
lclavicle -1.44119e-014 4.77083e-015
lhumerus -90.0771 -23.0143 88.2412
lradius 84.9669
lwrist 14.3152
lhand -43.7678 -33.1474
lfingers 7.12502
lthumb -16.5977 -3.83711
rfemur 25.6697 8.20412 34.6665
rtibia 77.794
rfoot -5.27873 -13.1431
rtoes 21.4959
lfemur -27.4059 11.9955 4.20973
ltibia 13.2659
lfoot -12.5377 7.81356
ltoes -9.80396
74
root 27.1975 16.3361 -4.86327 -57.3785 69.4198 -55.3675
lowerback 12.4469 6.40589 16.2321
upperback 0.958001 11.03 2.70342
thorax -3.4503 5.29436 -7.47759
lowerneck -25.5898 -3.58187 -0.490982
upperneck 28.6583 -5.56284 2.56704
head 14.1911 -1.93081 0.0725327
rclavicle -8.82604e-014 1.15295e-014
rhumerus -41.9748 27.2103 -98.1597
rradius 103.288
rwrist -18.2831
rhand -27.1376 -28.4731
rfingers 7.12502
rthumb -0.553022 -58.4521
lclavicle -8.82604e-014 1.15295e-014
lhumerus -87.9939 -23.1877 88.0881
lradius 84.5876
lwrist 13.8786
lhand -43.0835 -32.5582
lfingers 7.12502
lthumb -15.9388 -3.19404
rfemur 25.0482 7.56807 34.3144
rtibia 83.4163
rfoot 2.97049 13.6386
rtoes 24.4474
lfemur -26.1121 11.7208 4.27145
ltibia 14.5647
lfoot -9.74549 6.51612
ltoes -7.55173
75
root 27.8188 16.1826 -4.88545 -57.93 70.0603 -55.0816
lowerback 13.0612 5.95181 15.4668
upperback 1.07546 10.4258 2.64295
thorax -3.92214 4.97215 -7.20018
lowerneck -25.8724 -3.3283 -0.555297
upperneck 28.8111 -5.24914 2.77629
head 14.3221 -1.76554 0.225073
rclavicle -1.44119e-014 -1.23246e-014
rhumerus -44.2057 26.4831 -99.2731
rradius 101.686
rwrist -18.4927
rhand -27.3099 -28.3478
rfingers 7.12502
rthumb -0.719442 -58.3263
lclavicle -1.44119e-014 -1.23246e-014
lhumerus -85.7591 -23.7031 88.0783
lradius 84.0671
lwrist 13.4016
lhand -42.5364 -32.6309
lfingers 7.12502
lthumb -15.4119 -3.22545
rfemur 24.0631 6.7939 33.2
rtibia 88.4261
rfoot 14.1484 39.8758
rtoes 26.1765
lfemur -25.1517 11.927 3.43224
ltibia 15.8307
lfoot -5.64205 5.92874
ltoes -4.03823
76
root 28.4271 16.0183 -4.90722 -58.1406 71.4706 -54.5415
lowerback 13.6134 5.43618 13.9456
upperback 1.13353 9.59094 2.40077
thorax -4.54622 4.53378 -6.67317
lowerneck -25.6367 -2.98875 -0.40029
upperneck 28.5508 -4.81713 2.78104
head 14.1463 -1.57489 0.288074
rclavicle 1.90833e-014 -1.59028e-014
rhumerus -46.3299 25.6713 -100.303
rradius 99.851
rwrist -18.34
rhand -27.5923 -28.4052
rfingers 7.12502
rthumb -0.992155 -58.3827
lclavicle 1.90833e-014 -1.59028e-014
lhumerus -83.4532 -24.2616 88.1177
lradius 83.6044
lwrist 12.9797
lhand -42.2388 -32.5574
lfingers 7.12502
lthumb -15.1252 -3.13006
rfemur 22.8476 5.61466 31.131
rtibia 90.009
rfoot 40.215 63.5788
rtoes 29.277
lfemur -25.1567 13.0733 1.11048
ltibia 18.9302
lfoot 4.42433 9.67391
ltoes 28.3099
77
root 29.0096 15.844 -4.93938 -57.5228 73.9966 -53.4681
lowerback 14.2367 4.80167 11.3637
upperback 0.922302 8.41572 1.92195
thorax -5.64171 3.90837 -5.77644
lowerneck -24.8557 -2.51764 -0.0615704
upperneck 28.0001 -4.14898 2.47122
head 13.7161 -1.32139 0.242535
rclavicle -3.46382e-014 3.89618e-014
rhumerus -48.6463 24.9447 -101.394
rradius 97.6638
rwrist -18.223
rhand -17.318 -35.8213
rfingers 7.12502
rthumb 8.92853 -65.6123
lclavicle -3.46382e-014 3.89618e-014
lhumerus -81.2063 -24.6366 88.3087
lradius 83.0527
lwrist 12.5229
lhand -42.2768 -32.0952
lfingers 7.12502
lthumb -15.1618 -2.67067
rfemur 21.1112 3.97996 27.6398
rtibia 87.4503
rfoot 114.733 70.773
rtoes 24.6321
lfemur -26.8146 14.1917 -3.24346
ltibia 23.6462
lfoot 6.27939 5.67958
ltoes 14.6503
78
root 29.5695 15.6869 -4.94562 -54.1461 77.7219 -49.8786
lowerback 15.1598 4.21947 6.93949
upperback 0.35278 6.97463 1.29006
thorax -7.44411 3.18828 -3.96151
lowerneck -24.2204 -2.01359 -0.332928
upperneck 28.0313 -3.43617 2.92189
head 13.604 -0.977814 0.607648
rclavicle 2.43511e-014 1.27222e-014
rhumerus -51.2608 24.1368 -102.375
rradius 94.9728
rwrist -17.6473
rhand -28.0843 -28.9357
rfingers 7.12502
rthumb -1.46733 -58.9104
lclavicle 2.43511e-014 1.27222e-014
lhumerus -79.0852 -24.8079 88.7481
lradius 82.2036
lwrist 12.0342
lhand -42.5628 -31.6265
lfingers 7.12502
lthumb -15.4373 -2.22299
rfemur 18.7971 1.86305 22.7639
rtibia 81.9307
rfoot 158.312 49.0841
rtoes 29.5553
lfemur -29.932 11.2289 -8.3456
ltibia 31.7398
lfoot 2.13644 4.58639
ltoes 11.4616
79
root 30.1104 15.577 -4.91747 -38.7696 82.5775 -34.2009
lowerback 14.524 3.9522 1.10067
upperback 1.3448 5.47349 -0.118824
thorax -6.57752 2.66841 -1.83159
lowerneck -25.0461 -1.73043 -0.580275
upperneck 27.0125 -3.18272 3.62799
head 13.3632 -0.821689 0.959028
rclavicle 2.89729e-014 -7.95139e-016
rhumerus -50.6395 23.0355 -102.131
rradius 91.5176
rwrist -17.2678
rhand -27.2941 -29.7815
rfingers 7.12502
rthumb -0.704107 -59.7601
lclavicle 2.89729e-014 -7.95139e-016
lhumerus -73.5503 -25.8915 87.8101
lradius 80.9322
lwrist 11.915
lhand -42.7522 -31.6645
lfingers 7.12502
lthumb -15.6197 -2.27515
rfemur 16.0459 -0.649084 16.0699
rtibia 76.3902
rfoot 170.343 22.1112
rtoes 27.8944
lfemur -32.6126 7.27074 -15.0951
ltibia 38.9214
lfoot -2.27435 6.58295
ltoes 4.34382
80
root 30.6318 15.4701 -4.90163 10.448 85.3982 14.3563
lowerback 13.6267 3.66632 -4.82963
upperback 1.80068 4.144 -1.61483
thorax -5.94173 2.16385 0.234956
lowerneck -25.876 -1.49325 -0.707777
upperneck 26.1885 -2.96845 4.13951
head 13.1978 -0.687617 1.20748
rclavicle 3.71727e-014 -7.95139e-015
rhumerus -50.4954 21.2846 -101.753
rradius 87.9533
rwrist -15.9552
rhand -26.7881 -30.2718
rfingers 7.12502
rthumb -0.215426 -60.2514
lclavicle 3.71727e-014 -7.95139e-015
lhumerus -68.0456 -26.7792 86.694
lradius 79.6153
lwrist 11.4956
lhand -42.5834 -31.4533
lfingers 7.12502
lthumb -15.4571 -2.05129
rfemur 11.5235 -3.1427 9.38883
rtibia 71.8485
rfoot 169.369 22.5345
rtoes 27.14
lfemur -34.5898 4.78327 -22.1341
ltibia 43.2683
lfoot -5.47271 6.04483
ltoes 6.23526
81
root 31.172 15.4054 -4.92718 60.1689 85.3143 64.0899
lowerback 13.5684 2.91273 -7.74805
upperback 2.47177 2.76649 -2.58467
thorax -5.21187 1.53868 1.12691
lowerneck -26.9191 -1.35339 -0.638519
upperneck 25.5761 -2.85682 4.27165
head 13.1514 -0.623633 1.25806
rclavicle -1.95803e-014 3.89618e-014
rhumerus -50.587 18.755 -100.902
rradius 84.6934
rwrist -14.2994
rhand -25.8858 -31.3142
rfingers 7.12502
rthumb 0.656024 -61.2929
lclavicle -1.95803e-014 3.89618e-014
lhumerus -62.255 -27.7174 85.4531
lradius 78.157
lwrist 10.8096
lhand -42.3945 -31.4346
lfingers 7.12502
lthumb -15.2752 -2.01868
rfemur 7.95709 -6.23997 5.46286
rtibia 68.0349
rfoot 168.798 22.4911
rtoes 26.8407
lfemur -33.6441 3.3843 -26.8068
ltibia 44.9582
lfoot -7.03613 4.76075
ltoes 5.29223
82
root 31.8344 15.3832 -5.06253 86.505 82.5609 90.918
lowerback 12.6456 2.13699 -9.32212
upperback 3.43991 1.74617 -3.96429
thorax -3.58235 1.02303 0.789941
lowerneck -28.061 -1.36231 -0.44293
upperneck 25.5312 -2.9698 4.23349
head 13.3574 -0.651689 1.1878
rclavicle 2.57426e-014 -8.74653e-015
rhumerus -51.2311 15.6877 -100.026
rradius 81.6668
rwrist -11.9402
rhand -25.9749 -32.734
rfingers 7.12502
rthumb 0.569969 -62.713
lclavicle 2.57426e-014 -8.74653e-015
lhumerus -56.7471 -28.9748 84.1956
lradius 76.5697
lwrist 10.3444
lhand -41.7796 -31.7842
lfingers 7.12502
lthumb -14.6828 -2.32415
rfemur 6.42194 -6.41721 0.29168
rtibia 66.8479
rfoot 170.018 18.345
rtoes 26.143
lfemur -29.2867 1.43627 -32.5803
ltibia 43.072
lfoot -8.14161 3.7365
ltoes 2.30384
